<svg width="60" height="56" viewBox="0 0 60 56" fill="none" xmlns="http://www.w3.org/2000/svg">
<mask id="mask0_86_3" style="mask-type:luminance" maskUnits="userSpaceOnUse" x="0" y="0" width="60" height="56">
<path d="M36.3067 3.44523C43.2319 7.63821 47.8602 15.2437 47.8602 23.9301C47.8602 27.4156 47.1149 30.7273 45.7749 33.7142C42.3321 32.2448 38.6281 31.4943 34.8793 31.4943C34.7871 31.4943 34.695 31.4949 34.603 31.496C36.1199 29.3602 37.0118 26.7494 37.0118 23.9301C37.0118 19.2588 34.5634 15.1594 30.8797 12.8449C29.7951 12.1636 28.6038 11.6371 27.3361 11.2961C26.2501 11.0043 25.1083 10.8484 23.9301 10.8484C16.7052 10.8484 10.8484 16.7055 10.8484 23.9301C10.8484 28.8213 13.5325 33.0855 17.5083 35.3298C24.0815 39.0403 28.3498 35.3377 34.8793 35.3377C38.3373 35.3377 41.7481 36.0765 44.8916 37.5266C50.7752 40.2402 53.3384 45.5688 59.3679 46.7329C57.263 49.9968 54.7187 52.9499 51.8202 55.5118C45.3362 52.1657 41.9477 46.1861 34.8793 46.1861C25.3358 46.1861 23.022 50.9716 12.0831 44.7267C4.86537 40.606 0 32.8364 0 23.9301C0 10.9479 10.3384 0.379897 23.2312 0.0103229C23.4636 0.00344068 23.6966 0 23.9301 0C27.088 0 30.1031 0.611828 32.8632 1.7233C34.0621 2.20575 35.2131 2.78316 36.3067 3.44523Z" fill="white"/>
</mask>
<g mask="url(#mask0_86_3)">
<path d="M0.0010376 55.7182H59.3669V0.206421H0.0010376V55.7182Z" fill="white"/>
</g>
</svg>
